<svg width="85" height="77" viewBox="0 0 85 77" fill="none" xmlns="http://www.w3.org/2000/svg">
<g id="Frame 1973" filter="url(#filter0_d_849_49610)">
<g id="Group 2609769">
<path id="Vector" d="M54.2136 35.7136L59.5498 40.3651L37.8779 52.4077C37.8779 52.4077 35.0102 53.9313 33.4693 51.8724C27.4399 43.6286 54.2136 35.7136 54.2136 35.7136Z" fill="#256382"/>
<path id="Vector_2" d="M36.9557 46.2037C36.9557 46.2037 32.755 47.9443 33.7379 50.7781C34.725 53.679 38.0332 51.657 38.0332 51.657L58.6147 40.4896C58.6147 40.4896 57.2129 37.4124 59.2303 35.201L36.9557 46.2037Z" fill="#D9E3E8"/>
<path id="Vector_3" d="M38.6823 16.4106L60.2239 34.9374L36.7969 45.8095L19.8894 22.7554L38.6823 16.4106Z" fill="#42ADE2"/>
<path id="Vector_4" d="M39.564 20.867L43.7104 24.7843L29.4817 30.9143L25.7343 25.8279L39.564 20.867Z" fill="white"/>
<path id="Vector_5" d="M58.3573 37.409L44.5641 44.0506L58.1188 36.8179L58.3573 37.409ZM58.2639 39.1649L43.5609 46.334L57.9542 38.5109L58.2639 39.1649ZM58.456 40.0955L39.728 49.6674L58.1505 39.5085L58.456 40.0955Z" fill="#94989B"/>
<path id="Vector_6" d="M33.4692 51.8725C30.8195 47.1222 36.801 45.8774 36.801 45.8774L19.8894 22.7563C19.8894 22.7563 16.3982 22.9047 16.622 26.5259C16.7132 28.0012 17.4542 29.0998 17.4542 29.0998L33.4692 51.8725Z" fill="#428BC1"/>
</g>
</g>
<defs>
<filter id="filter0_d_849_49610" x="0.402344" y="-0.844727" width="84.4014" height="77.9805" filterUnits="userSpaceOnUse" color-interpolation-filters="sRGB">
<feFlood flood-opacity="0" result="BackgroundImageFix"/>
<feColorMatrix in="SourceAlpha" type="matrix" values="0 0 0 0 0 0 0 0 0 0 0 0 0 0 0 0 0 0 127 0" result="hardAlpha"/>
<feOffset dx="4" dy="4"/>
<feGaussianBlur stdDeviation="10"/>
<feComposite in2="hardAlpha" operator="out"/>
<feColorMatrix type="matrix" values="0 0 0 0 0 0 0 0 0 1 0 0 0 0 0.929412 0 0 0 1 0"/>
<feBlend mode="normal" in2="BackgroundImageFix" result="effect1_dropShadow_849_49610"/>
<feBlend mode="normal" in="SourceGraphic" in2="effect1_dropShadow_849_49610" result="shape"/>
</filter>
</defs>
</svg>
