<svg width="84" height="77" viewBox="0 0 84 77" fill="none" xmlns="http://www.w3.org/2000/svg">
<g id="Frame 1972" filter="url(#filter0_d_849_49602)">
<g id="Group 2609769">
<path id="Vector" d="M53.8113 35.7136L59.1474 40.3651L37.4756 52.4077C37.4756 52.4077 34.6078 53.9313 33.067 51.8724C27.0376 43.6286 53.8113 35.7136 53.8113 35.7136Z" fill="#256382"/>
<path id="Vector_2" d="M36.5533 46.2037C36.5533 46.2037 32.3527 47.9443 33.3356 50.7781C34.3227 53.679 37.6308 51.657 37.6308 51.657L58.2124 40.4896C58.2124 40.4896 56.8105 37.4124 58.828 35.201L36.5533 46.2037Z" fill="#D9E3E8"/>
<path id="Vector_3" d="M38.2799 16.4106L59.8216 34.9374L36.3945 45.8095L19.4871 22.7554L38.2799 16.4106Z" fill="#42ADE2"/>
<path id="Vector_4" d="M39.1616 20.867L43.308 24.7843L29.0794 30.9143L25.3319 25.8279L39.1616 20.867Z" fill="white"/>
<path id="Vector_5" d="M57.9549 37.409L44.1618 44.0506L57.7165 36.8179L57.9549 37.409ZM57.8615 39.1649L43.1586 46.334L57.5518 38.5109L57.8615 39.1649ZM58.0537 40.0955L39.3256 49.6674L57.7481 39.5085L58.0537 40.0955Z" fill="#94989B"/>
<path id="Vector_6" d="M33.0668 51.8725C30.4172 47.1222 36.3987 45.8774 36.3987 45.8774L19.4871 22.7563C19.4871 22.7563 15.9959 22.9047 16.2197 26.5259C16.3108 28.0012 17.0519 29.0998 17.0519 29.0998L33.0668 51.8725Z" fill="#428BC1"/>
</g>
</g>
<defs>
<filter id="filter0_d_849_49602" x="0" y="-0.844727" width="84.4014" height="77.9805" filterUnits="userSpaceOnUse" color-interpolation-filters="sRGB">
<feFlood flood-opacity="0" result="BackgroundImageFix"/>
<feColorMatrix in="SourceAlpha" type="matrix" values="0 0 0 0 0 0 0 0 0 0 0 0 0 0 0 0 0 0 127 0" result="hardAlpha"/>
<feOffset dx="4" dy="4"/>
<feGaussianBlur stdDeviation="10"/>
<feComposite in2="hardAlpha" operator="out"/>
<feColorMatrix type="matrix" values="0 0 0 0 0 0 0 0 0 0 0 0 0 0 0 0 0 0 0.25 0"/>
<feBlend mode="normal" in2="BackgroundImageFix" result="effect1_dropShadow_849_49602"/>
<feBlend mode="normal" in="SourceGraphic" in2="effect1_dropShadow_849_49602" result="shape"/>
</filter>
</defs>
</svg>
