<svg width="48" height="48" viewBox="0 0 48 48" fill="none" xmlns="http://www.w3.org/2000/svg">
<g id="Group 2609991" filter="url(#filter0_d_849_49906)">
<path id="Vector" d="M22.0623 37.37L38.1039 39.5512C39.6139 39.7589 40.0005 38.555 40.0005 37.5353L39.9839 36.2984L20.2549 32.3232C20.2549 33.7348 21.0578 37.37 22.0623 37.37Z" fill="#0E524D"/>
<path id="Vector_2" d="M22.6458 36.2938L25.1701 36.6101L38.6874 38.475C39.4143 38.475 39.9992 37.6488 39.9992 36.629L39.2822 5.34734C39.2822 4.3276 38.694 3.50141 37.9704 3.50141L22.6458 1.43359C21.6413 1.43359 20.8252 2.58081 20.8252 3.9924V33.735C20.8252 35.1466 21.638 36.2938 22.6458 36.2938Z" fill="#00FFED"/>
<path id="Vector_3" d="M17.9382 37.3699L1.89658 39.551C0.386585 39.7587 0 38.5549 0 37.5351L0.0165207 36.2982L19.7456 32.3184C19.7456 33.7347 18.9427 37.3699 17.9382 37.3699Z" fill="#0E524D"/>
<path id="Vector_4" d="M17.3534 36.294L14.8488 36.6103L1.31175 38.4798C0.584834 38.4798 0 37.6537 0 36.6339L0.717 5.35223C0.717 4.33248 1.30514 3.5063 2.02875 3.5063L17.3534 1.43848C18.3578 1.43848 19.174 2.58569 19.174 3.99729V33.7399C19.174 35.1468 18.3611 36.294 17.3534 36.294Z" fill="#00FFED"/>
<path id="Vector_5" d="M24.8739 29.293H15.1333L14.8359 36.6248L17.8758 37.0308C17.8758 37.0308 18.5267 39.3535 20.0003 39.3535C21.474 39.3535 22.1249 37.0308 22.1249 37.0308L25.1647 36.6248L24.8739 29.293Z" fill="#424242"/>
<path id="Vector_6" d="M25.1345 37.2009L22.3029 36.8516M14.8652 37.2009L17.6969 36.8516" stroke="#616161" stroke-width="2.5" stroke-miterlimit="10"/>
<path id="Vector_7" d="M38.3869 5.28115L37.0653 2.68457L19.9994 30.3971L2.93345 2.68457L1.61179 5.28115L1.42676 36.1332C1.42676 36.1332 4.93576 36.7611 9.62434 36.0813C13.7083 35.4911 15.6313 33.9804 16.9959 34.3723C18.6348 34.8444 18.9321 36.2843 18.985 36.5298C19.1337 37.2096 19.4277 37.7384 19.9994 37.7384C20.571 37.7384 20.8254 37.4551 21.0005 36.6148C21.0534 36.3693 21.364 34.8491 23.0028 34.377C24.3674 33.9851 26.2905 35.4959 30.3744 36.086C35.063 36.7658 38.572 36.1379 38.572 36.1379L38.3869 5.28115Z" fill="#94C6D6"/>
<path id="Vector_8" d="M36.6201 33.159L36.673 20.7002H38.4804L38.5729 36.1333C38.5729 36.1333 37.1356 35.3355 36.6201 33.159Z" fill="url(#paint0_linear_849_49906)"/>
<path id="Vector_9" d="M36.7017 25.8984L36.6191 33.1641C36.6191 33.1641 32.6673 32.8714 26.3729 31.3135C22.256 30.2937 19.9992 33.5607 19.9992 33.5607L19.9629 25.8984H36.7017Z" fill="url(#paint1_linear_849_49906)"/>
<path id="Vector_10" d="M3.29688 25.8984L3.37948 33.1641C3.37948 33.1641 7.33124 32.8714 13.6256 31.3135C17.7426 30.2937 19.9993 33.5607 19.9993 33.5607L19.963 25.8984H3.29688Z" fill="url(#paint2_linear_849_49906)"/>
<path id="Vector_11" d="M3.37951 33.159L3.32664 20.7002H1.51597L1.42676 36.1333C1.42676 36.1333 2.86076 35.3355 3.37951 33.159Z" fill="url(#paint3_linear_849_49906)"/>
<path id="Vector_12" d="M37.0653 2.68463C37.0653 2.68463 28.2961 0.328826 24.4468 0.0219573C20.8254 -0.266027 20.082 2.36832 20.0093 2.68463H19.9961C19.9201 2.36832 19.1766 -0.261306 15.5553 0.0219573C11.706 0.328826 2.93676 2.68463 2.93676 2.68463L2.54688 33.0882C2.54688 33.0882 12.988 29.9629 15.5157 30.3689C18.0433 30.7749 19.9994 33.5603 19.9994 33.5603C19.9994 33.5603 21.9587 30.7749 24.4864 30.3689C27.0141 29.9629 37.4552 33.0882 37.4552 33.0882L37.0653 2.68463Z" fill="#F5F5F5"/>
<path id="Vector_13" opacity="0.26" d="M16.5704 0.0263672L14.7861 30.3355C15.067 30.3261 15.3148 30.3355 15.513 30.3686C18.0374 30.7699 20.0001 33.56 20.0001 33.56L19.9439 2.68432C19.9439 2.68432 19.5144 0.267141 16.5704 0.0263672Z" fill="#94C6D6"/>
<path id="Vector_14" opacity="0.5" d="M7.21616 4.03491C6.32404 4.2568 5.59383 4.44565 5.17751 4.54951C5.17751 4.84221 5.17751 5.16324 5.1742 5.50788C5.54096 5.41346 6.2877 5.2199 7.21616 4.98857V4.03491ZM15.2585 2.51474V3.45423C17.0196 3.4495 17.9943 4.08212 18.3148 4.33706C18.3148 3.94521 18.3181 3.59586 18.3181 3.28899C17.7729 2.93963 16.7751 2.51001 15.2585 2.51474ZM13.8245 2.63276C12.3938 2.84049 10.4014 3.27483 8.65016 3.69028V4.64865C10.3881 4.23792 12.3838 3.79886 13.8245 3.58169V2.63276ZM10.3055 6.70703C8.17106 7.17913 6.02998 7.72678 5.1709 7.94867V8.90704C5.91764 8.71348 8.10828 8.14695 10.3055 7.66068V6.70703ZM14.2804 5.97054C13.5833 6.0508 12.6944 6.21132 11.7395 6.40016V7.35381C12.7143 7.15553 13.6262 6.99501 14.3333 6.91003C16.7057 6.63149 17.9579 7.4624 18.3082 7.74566V6.69287C17.6606 6.28214 16.362 5.72505 14.2804 5.97054ZM7.56971 10.7435C6.5256 10.9985 5.6533 11.2204 5.1709 11.3478V12.3062C5.60374 12.1929 6.48925 11.9663 7.56971 11.7019V10.7435ZM18.3082 10.1062C17.6639 9.69073 16.362 9.12421 14.2606 9.37442C12.9158 9.53022 10.8573 9.96927 9.00371 10.4036V11.362C10.8739 10.9229 12.9621 10.4791 14.3168 10.3186C16.7288 10.0354 17.9844 10.8993 18.3082 11.1684V10.1062ZM18.3115 13.5195C17.6738 13.1041 16.3653 12.5234 14.2474 12.7736C14.0326 12.7972 13.8013 12.8302 13.5568 12.868V13.8169C13.8245 13.7744 14.0723 13.7414 14.3036 13.7131C16.7618 13.4251 18.0174 14.3268 18.3148 14.5817C18.3115 14.2277 18.3115 13.8736 18.3115 13.5195ZM12.1195 13.1229C9.53568 13.6281 6.31744 14.4448 5.1742 14.7423V15.7006C6.18197 15.4363 9.4762 14.5912 12.1195 14.0719V13.1229ZM8.18758 17.3908C6.88905 17.7024 5.76564 17.9903 5.1742 18.1414V19.0998C5.70947 18.9582 6.8494 18.6655 8.18758 18.3444V17.3908ZM18.3148 16.9375C17.6837 16.5221 16.3687 15.9272 14.2309 16.1775C13.0414 16.3191 11.2968 16.6732 9.62489 17.0556V18.0092C11.3133 17.6221 13.0876 17.2586 14.2837 17.1169C16.8048 16.8195 18.0637 17.7826 18.3148 17.9998V16.9375ZM18.3214 23.7689C17.72 23.3582 16.4182 22.7397 14.2705 22.9711V23.92C17.0097 23.6037 18.252 24.7745 18.3214 24.8453V23.7689ZM7.56971 24.3354C6.55203 24.5857 5.68634 24.8028 5.18081 24.935V25.8934C5.6467 25.7706 6.51899 25.5487 7.56971 25.2891V24.3354ZM9.00371 23.9955V24.9539C10.2857 24.6565 11.6635 24.3543 12.8365 24.1419V23.1882C11.6702 23.3959 10.2923 23.6934 9.00371 23.9955ZM11.3001 26.8848C8.93432 27.3758 6.27448 28.0509 5.18411 28.3342V29.2925C6.17205 29.0329 8.88145 28.3436 11.3001 27.8385V26.8848ZM18.3247 27.187C17.7267 26.7715 16.3951 26.1247 14.1747 26.3844C13.7551 26.4316 13.2661 26.5118 12.7341 26.6063V27.5552C13.2859 27.4561 13.7947 27.3758 14.2276 27.3239C17.0559 26.9887 18.2983 28.2445 18.3115 28.2539L18.328 28.2256C18.328 27.8998 18.328 27.5552 18.3247 27.187ZM10.8078 20.1904C8.55434 20.6719 6.16545 21.2809 5.17751 21.5406V22.4989C6.06302 22.2676 8.49817 21.6444 10.8078 21.144V20.1904ZM18.3181 20.3509C17.6969 19.9354 16.3786 19.3217 14.211 19.5766C13.6559 19.6427 12.9786 19.756 12.2451 19.8976V20.8513C13.0017 20.7049 13.6989 20.5869 14.2672 20.5208C16.8709 20.214 18.1298 21.2479 18.3214 21.4225C18.3181 21.0732 18.3181 20.7144 18.3181 20.3509ZM28.0653 3.81302C30.8012 4.33234 34.3762 5.25767 35.3477 5.50788C35.3477 5.15852 35.3477 4.84221 35.3444 4.54951C34.2077 4.25208 30.7285 3.36453 28.062 2.85937V3.81302H28.0653ZM26.628 2.62332C26.4859 2.60444 26.3505 2.58555 26.2216 2.57139C24.1499 2.32589 22.8547 2.87826 22.2038 3.28899C22.2038 3.59586 22.2071 3.94994 22.2071 4.33706C22.5771 4.04436 23.8294 3.23706 26.1687 3.51088C26.3141 3.52976 26.4694 3.54865 26.628 3.57225V2.62332ZM32.6746 8.23665C33.5677 8.4539 34.4598 8.67894 35.351 8.91176V7.95339C34.8322 7.81648 33.8476 7.56626 32.6746 7.283V8.23665ZM31.2406 6.93836C29.4531 6.52763 27.5234 6.12162 26.2414 5.97054C24.1598 5.72505 22.8613 6.28214 22.2104 6.69287V7.74566C22.5606 7.4624 23.8129 6.63149 26.1853 6.91003C27.4772 7.06111 29.4365 7.47656 31.2373 7.89201V6.93836H31.2406ZM30.9631 10.2714V11.2251C32.8828 11.6641 34.6703 12.1268 35.351 12.3062V11.3478C34.5811 11.1495 32.8266 10.701 30.9631 10.2714ZM28.062 13.0616C27.3979 12.9388 26.7833 12.835 26.2745 12.7783C24.1565 12.5281 22.8481 13.1088 22.2104 13.5242V14.5865C22.5078 14.3362 23.7666 13.4298 26.2216 13.7178C26.7437 13.7792 27.3781 13.883 28.062 14.0152V13.0616ZM29.4993 13.3495V14.3032C31.8948 14.8131 34.4754 15.4787 35.3477 15.7054V14.747C34.363 14.4873 31.8354 13.8453 29.4993 13.3495ZM29.7901 16.8101C28.485 16.5268 27.2195 16.286 26.2943 16.1775C24.1532 15.9272 22.8382 16.5221 22.2104 16.9375V18.0045C22.4615 17.7826 23.7204 16.8242 26.2414 17.1217C27.1765 17.2303 28.4684 17.4805 29.7934 17.7685V16.8101H29.7901ZM31.2241 17.1311V18.0895C33.0215 18.5049 34.667 18.9298 35.3444 19.1045V18.1461C34.591 17.9479 32.972 17.5324 31.2241 17.1311ZM33.5601 21.0874V22.0457C34.3399 22.2393 34.9776 22.4045 35.3411 22.4989V21.5406C34.9446 21.4367 34.3168 21.2762 33.5601 21.0874ZM28.3561 23.311C27.5994 23.1646 26.899 23.0466 26.3307 22.9805C24.1367 22.7208 22.8117 23.3535 22.2038 23.7689V24.8453C22.2732 24.7745 23.5221 23.5942 26.2811 23.92C26.8626 23.9861 27.5829 24.1088 28.3627 24.2599V23.311H28.3561ZM29.7901 23.6037V24.5573C32.0633 25.0483 34.4489 25.6621 35.3411 25.8934V24.935C34.3498 24.6801 32.0105 24.0852 29.7901 23.6037ZM30.9631 27.2625C29.2879 26.8801 27.5367 26.5213 26.3472 26.3797C24.1235 26.12 22.7952 26.7715 22.1972 27.1822V28.2209L22.2137 28.2492C22.2236 28.2397 23.466 26.9839 26.2976 27.3191C27.497 27.4608 29.2779 27.829 30.9697 28.2161V27.2625H30.9631ZM32.4004 27.6024V28.5608C33.6857 28.8676 34.7827 29.1509 35.3378 29.2973V28.3389C34.7331 28.1784 33.6493 27.8998 32.4004 27.6024ZM26.2547 19.5719C24.1202 19.3311 22.8183 19.9401 22.2038 20.3509V21.4225C22.3954 21.2479 23.651 20.214 26.2547 20.5208V19.5719ZM27.692 19.7891V20.738C29.0533 20.9835 30.6888 21.3517 32.1261 21.6916V20.7333C30.6789 20.3934 29.0434 20.0298 27.692 19.7891ZM25.194 9.31777C23.7138 9.33193 22.739 9.76627 22.2137 10.1062V11.1637C22.4912 10.9371 23.4395 10.2809 25.194 10.2573V9.31777ZM26.628 9.42163V10.3706C27.4508 10.4886 28.4717 10.6869 29.5258 10.9088V9.95511C28.4684 9.7285 27.4508 9.53494 26.628 9.42163Z" fill="#2B2C4B"/>
<path id="Vector_15" d="M22.3651 36.2663C21.995 36.219 21.6547 36.5448 21.5357 37.0499C21.3573 37.8195 20.941 38.8251 19.9993 38.8251C19.0477 38.8251 18.6281 37.8148 18.4463 37.0452C18.3898 36.8041 18.2784 36.5969 18.1299 36.4566C17.9814 36.3163 17.8044 36.2509 17.6269 36.271L17.498 36.2851L17.5014 36.4362C17.5014 37.3815 17.7642 38.2882 18.232 38.9566C18.6998 39.6251 19.3344 40.0006 19.996 40.0006C20.6576 40.0006 21.2921 39.6251 21.76 38.9566C22.2278 38.2882 22.4906 37.3815 22.4906 36.4362C22.4906 36.389 22.4873 36.2804 22.4873 36.2804L22.3651 36.2663Z" fill="#616161"/>
</g>
<defs>
<filter id="filter0_d_849_49906" x="0" y="0" width="48" height="48.001" filterUnits="userSpaceOnUse" color-interpolation-filters="sRGB">
<feFlood flood-opacity="0" result="BackgroundImageFix"/>
<feColorMatrix in="SourceAlpha" type="matrix" values="0 0 0 0 0 0 0 0 0 0 0 0 0 0 0 0 0 0 127 0" result="hardAlpha"/>
<feOffset dx="4" dy="4"/>
<feGaussianBlur stdDeviation="2"/>
<feComposite in2="hardAlpha" operator="out"/>
<feColorMatrix type="matrix" values="0 0 0 0 0 0 0 0 0 0 0 0 0 0 0 0 0 0 0.5 0"/>
<feBlend mode="normal" in2="BackgroundImageFix" result="effect1_dropShadow_849_49906"/>
<feBlend mode="normal" in="SourceGraphic" in2="effect1_dropShadow_849_49906" result="shape"/>
</filter>
<linearGradient id="paint0_linear_849_49906" x1="37.5925" y1="31.4269" x2="37.7591" y2="23.2598" gradientUnits="userSpaceOnUse">
<stop offset="0.267" stop-color="#82AEC0"/>
<stop offset="1" stop-color="#82AEC0" stop-opacity="0"/>
</linearGradient>
<linearGradient id="paint1_linear_849_49906" x1="21.9543" y1="29.7277" x2="36.0997" y2="29.7277" gradientUnits="userSpaceOnUse">
<stop stop-color="#2F7889"/>
<stop offset="1" stop-color="#82AEC0"/>
</linearGradient>
<linearGradient id="paint2_linear_849_49906" x1="18.0099" y1="29.7277" x2="3.89592" y2="29.7277" gradientUnits="userSpaceOnUse">
<stop stop-color="#2F7889"/>
<stop offset="1" stop-color="#82AEC0"/>
</linearGradient>
<linearGradient id="paint3_linear_849_49906" x1="2.40578" y1="31.4269" x2="2.23852" y2="23.2598" gradientUnits="userSpaceOnUse">
<stop offset="0.267" stop-color="#82AEC0"/>
<stop offset="1" stop-color="#82AEC0" stop-opacity="0"/>
</linearGradient>
</defs>
</svg>
