<svg width="103" height="100" viewBox="0 0 103 100" fill="none" xmlns="http://www.w3.org/2000/svg">
<g id="&#240;&#159;&#166;&#134; illustration &#34;Notes&#34;" filter="url(#filter0_d_849_50201)">
<path id="Vector" d="M40.756 65.7388C40.5789 65.7458 40.4022 65.7178 40.2359 65.6563C40.0697 65.5949 39.9172 65.5013 39.7873 65.3808C39.6573 65.2603 39.5524 65.1153 39.4786 64.9542C39.4047 64.7931 39.3634 64.619 39.357 64.4419L38.1124 32.7537C38.1054 32.5764 38.1334 32.3996 38.1948 32.2332C38.2562 32.0668 38.3498 31.9142 38.4703 31.784C38.5907 31.6539 38.7357 31.5487 38.8968 31.4746C39.0579 31.4005 39.2321 31.3589 39.4093 31.3522L69.5144 30.1798C69.6916 30.1728 69.8684 30.2008 70.0348 30.2622C70.2012 30.3236 70.3538 30.4172 70.484 30.5377C70.6141 30.6581 70.7193 30.803 70.7934 30.9642C70.8675 31.1253 70.9091 31.2994 70.9158 31.4767L72.1505 62.916C72.1667 63.3408 72.0134 63.7547 71.7244 64.0665C71.4355 64.3783 71.0345 64.5626 70.6097 64.5788L40.756 65.7388Z" fill="#68E1FD"/>
<path id="Vector_2" d="M40.7047 65.9899C40.2912 65.9902 39.8938 65.83 39.5962 65.543C39.2985 65.256 39.1239 64.8647 39.1091 64.4515L37.8644 32.7633C37.8483 32.3395 38.0009 31.9267 38.2889 31.6154C38.5769 31.3041 38.9766 31.1198 39.4003 31.103L69.5154 29.933C69.7251 29.9243 69.9346 29.9572 70.1317 30.0296C70.3287 30.102 70.5096 30.2126 70.6638 30.3551C70.8181 30.4975 70.9427 30.669 71.0305 30.8597C71.1184 31.0504 71.1677 31.2566 71.1757 31.4664L72.4004 62.9157C72.4186 63.4064 72.2414 63.8842 71.9078 64.2445C71.5741 64.6047 71.1112 64.8179 70.6206 64.8374L40.7669 65.9999L40.7047 65.9899ZM69.5801 30.4284H69.5353L39.4302 31.6008C39.1385 31.6125 38.8634 31.7393 38.6651 31.9535C38.4668 32.1676 38.3615 32.4517 38.3723 32.7434L39.6044 64.4341C39.6099 64.5786 39.6439 64.7205 39.7046 64.8516C39.7653 64.9828 39.8514 65.1006 39.9579 65.1983C40.1732 65.3958 40.4576 65.5004 40.7495 65.4896L70.6032 64.3271C70.9615 64.3128 71.2996 64.157 71.5432 63.8938C71.7868 63.6306 71.916 63.2815 71.9026 62.9231L70.6779 31.4863C70.6669 31.2023 70.5465 30.9336 70.3419 30.7364C70.1373 30.5392 69.8643 30.4288 69.5801 30.4284Z" fill="#093F68"/>
<path id="Vector_3" d="M63.1226 62.9926H37.5181C37.1603 62.9926 36.8171 62.8504 36.5641 62.5974C36.3111 62.3444 36.1689 62.0012 36.1689 61.6434V29.9302C36.1686 29.753 36.2033 29.5774 36.271 29.4135C36.3387 29.2497 36.438 29.1008 36.5634 28.9755C36.6887 28.8501 36.8376 28.7508 37.0014 28.6831C37.1653 28.6154 37.3409 28.5807 37.5181 28.5811H67.6382C67.8153 28.5811 67.9908 28.616 68.1545 28.6838C68.3182 28.7516 68.4669 28.8509 68.5922 28.9762C68.7175 29.1015 68.8168 29.2502 68.8846 29.4139C68.9524 29.5776 68.9873 29.7531 68.9873 29.9302V56.8267L63.1226 62.9926Z" fill="white"/>
<path id="Vector_4" d="M63.1221 63.2424H37.5176C37.0937 63.2417 36.6874 63.0732 36.3874 62.7737C36.0874 62.4742 35.9183 62.0681 35.917 61.6443V29.9311C35.9183 29.5072 36.0874 29.1011 36.3874 28.8017C36.6874 28.5022 37.0937 28.3337 37.5176 28.333H67.6376C68.0613 28.3337 68.4674 28.5022 68.7669 28.8018C69.0665 29.1014 69.2351 29.5075 69.2357 29.9311V56.8275C69.2355 56.8916 69.2105 56.9532 69.166 56.9993L63.3013 63.1652C63.2782 63.1895 63.2504 63.2088 63.2196 63.2221C63.1888 63.2353 63.1556 63.2422 63.1221 63.2424ZM37.5176 28.8309C37.2255 28.8309 36.9454 28.9467 36.7387 29.153C36.532 29.3592 36.4155 29.6391 36.4148 29.9311V61.6443C36.4162 61.9361 36.5328 62.2156 36.7394 62.4217C36.946 62.6278 37.2258 62.7439 37.5176 62.7445H63.0151L68.7404 56.728V29.9311C68.7397 29.6395 68.6236 29.36 68.4174 29.1538C68.2112 28.9476 67.9317 28.8315 67.6401 28.8309H37.5176Z" fill="#093F68"/>
<path id="Vector_5" d="M63.1221 62.9927V58.2332C63.1227 57.8921 63.2585 57.5652 63.4997 57.324C63.7409 57.0827 64.0679 56.9469 64.409 56.9463H68.9967L63.1221 62.9927Z" fill="#FFBC0E"/>
<g id="Group">
<path id="Vector_6" d="M63.1229 63.2415C63.0915 63.2408 63.0604 63.2349 63.0308 63.2241C62.9845 63.2057 62.9448 63.1737 62.9169 63.1325C62.8889 63.0912 62.874 63.0425 62.874 62.9926V58.2331C62.8747 57.826 63.0367 57.4357 63.3246 57.1478C63.6125 56.86 64.0028 56.6979 64.4099 56.6973H68.9976C69.0467 56.697 69.0949 56.7112 69.1359 56.7383C69.177 56.7653 69.2091 56.8039 69.2283 56.8491C69.2474 56.8944 69.2528 56.9443 69.2436 56.9926C69.2345 57.0409 69.2112 57.0853 69.1768 57.1204L63.3022 63.1644C63.279 63.1886 63.2512 63.208 63.2204 63.2212C63.1896 63.2345 63.1565 63.2414 63.1229 63.2415ZM64.4099 57.1901C64.1346 57.1901 63.8706 57.2995 63.6759 57.4942C63.4812 57.6888 63.3719 57.9529 63.3719 58.2282V62.3728L68.4076 57.1901H64.4099Z" fill="#093F68"/>
<path id="Vector_7" d="M63.1231 36.6238H48.6854C48.6194 36.6238 48.5561 36.5976 48.5094 36.5509C48.4627 36.5042 48.4365 36.4409 48.4365 36.3749C48.4365 36.3089 48.4627 36.2456 48.5094 36.1989C48.5561 36.1522 48.6194 36.126 48.6854 36.126H63.1231C63.1892 36.126 63.2525 36.1522 63.2992 36.1989C63.3458 36.2456 63.3721 36.3089 63.3721 36.3749C63.3721 36.4409 63.3458 36.5042 63.2992 36.5509C63.2525 36.5976 63.1892 36.6238 63.1231 36.6238Z" fill="#093F68"/>
<path id="Vector_8" d="M63.1223 40.5691H42.2499C42.1839 40.5691 42.1206 40.5429 42.0739 40.4962C42.0272 40.4495 42.001 40.3862 42.001 40.3202C42.001 40.2542 42.0272 40.1909 42.0739 40.1442C42.1206 40.0975 42.1839 40.0713 42.2499 40.0713H63.1223C63.1883 40.0713 63.2517 40.0975 63.2983 40.1442C63.345 40.1909 63.3713 40.2542 63.3713 40.3202C63.3713 40.3862 63.345 40.4495 63.2983 40.4962C63.2517 40.5429 63.1883 40.5691 63.1223 40.5691Z" fill="#093F68"/>
<path id="Vector_9" d="M63.1223 44.5174H42.2499C42.1839 44.5174 42.1206 44.4912 42.0739 44.4445C42.0272 44.3978 42.001 44.3345 42.001 44.2685C42.001 44.2024 42.0272 44.1391 42.0739 44.0924C42.1206 44.0458 42.1839 44.0195 42.2499 44.0195H63.1223C63.1883 44.0195 63.2517 44.0458 63.2983 44.0924C63.345 44.1391 63.3713 44.2024 63.3713 44.2685C63.3713 44.3345 63.345 44.3978 63.2983 44.4445C63.2517 44.4912 63.1883 44.5174 63.1223 44.5174Z" fill="#093F68"/>
<path id="Vector_10" d="M63.1223 48.4627H42.2499C42.1839 48.4627 42.1206 48.4365 42.0739 48.3898C42.0272 48.3431 42.001 48.2798 42.001 48.2138C42.001 48.1478 42.0272 48.0844 42.0739 48.0378C42.1206 47.9911 42.1839 47.9648 42.2499 47.9648H63.1223C63.1883 47.9648 63.2517 47.9911 63.2983 48.0378C63.345 48.0844 63.3713 48.1478 63.3713 48.2138C63.3713 48.2798 63.345 48.3431 63.2983 48.3898C63.2517 48.4365 63.1883 48.4627 63.1223 48.4627Z" fill="#093F68"/>
<path id="Vector_11" d="M63.1223 52.4109H42.2499C42.1839 52.4109 42.1206 52.3847 42.0739 52.338C42.0272 52.2913 42.001 52.228 42.001 52.162C42.001 52.096 42.0272 52.0327 42.0739 51.986C42.1206 51.9393 42.1839 51.9131 42.2499 51.9131H63.1223C63.1883 51.9131 63.2517 51.9393 63.2983 51.986C63.345 52.0327 63.3713 52.096 63.3713 52.162C63.3713 52.228 63.345 52.2913 63.2983 52.338C63.2517 52.3847 63.1883 52.4109 63.1223 52.4109Z" fill="#093F68"/>
<path id="Vector_12" d="M55.1268 56.3592H42.2499C42.1839 56.3592 42.1206 56.333 42.0739 56.2863C42.0272 56.2396 42.001 56.1763 42.001 56.1103C42.001 56.0442 42.0272 55.9809 42.0739 55.9342C42.1206 55.8876 42.1839 55.8613 42.2499 55.8613H55.1268C55.1929 55.8613 55.2562 55.8876 55.3029 55.9342C55.3495 55.9809 55.3758 56.0442 55.3758 56.1103C55.3758 56.1763 55.3495 56.2396 55.3029 56.2863C55.2562 56.333 55.1929 56.3592 55.1268 56.3592Z" fill="#093F68"/>
<path id="Vector_13" d="M44.648 33.1467C44.3256 33.1628 44.0085 33.0598 43.757 32.8574C43.5055 32.655 43.3372 32.3673 43.2839 32.049L42.4973 27.6081C42.4578 27.4179 42.4624 27.2212 42.5107 27.0331C42.559 26.845 42.6498 26.6704 42.7761 26.5228C43.0141 26.2615 43.332 26.0863 43.6801 26.0246C44.0282 25.9629 44.3869 26.0182 44.7002 26.1818C44.8694 26.2772 45.0146 26.41 45.1246 26.57C45.2346 26.7301 45.3066 26.9132 45.335 27.1053L45.5541 28.3499C45.5598 28.3821 45.5591 28.4151 45.5521 28.4471C45.5451 28.479 45.5318 28.5093 45.5131 28.5361C45.4944 28.5629 45.4705 28.5858 45.443 28.6034C45.4154 28.621 45.3846 28.633 45.3524 28.6387C45.3202 28.6444 45.2872 28.6438 45.2553 28.6367C45.2233 28.6297 45.1931 28.6164 45.1663 28.5977C45.1395 28.579 45.1166 28.5552 45.099 28.5276C45.0814 28.5 45.0694 28.4693 45.0637 28.4371L44.8446 27.1924C44.8287 27.0728 44.7854 26.9584 44.718 26.8582C44.6507 26.7581 44.5611 26.6748 44.4563 26.6149C44.2433 26.5084 44.0015 26.4734 43.767 26.5151C43.5325 26.5568 43.3177 26.673 43.1544 26.8464C43.0765 26.9384 43.0209 27.0471 42.9919 27.1642C42.963 27.2812 42.9615 27.4033 42.9876 27.521L43.7718 31.9618C43.8763 32.5443 44.3891 32.7086 44.8496 32.6414C45.3101 32.5742 45.7333 32.2157 45.6312 31.6457L45.4694 30.7371C45.4579 30.6711 45.473 30.6032 45.5115 30.5484C45.55 30.4935 45.6088 30.4562 45.6748 30.4446C45.7408 30.4331 45.8087 30.4482 45.8636 30.4867C45.9184 30.5253 45.9557 30.584 45.9673 30.65L46.1266 31.5586C46.2834 32.4348 45.6487 33.0198 44.9442 33.1442C44.8457 33.153 44.7466 33.1538 44.648 33.1467Z" fill="#093F68"/>
</g>
<path id="Vector_14" d="M39.751 55.084L36.9798 56.1991L30.7537 40.7268C30.6438 40.4536 30.6469 40.148 30.7623 39.8771C30.8777 39.6062 31.096 39.3923 31.3692 39.2824L32.0782 38.9971C32.3513 38.8872 32.657 38.8903 32.9278 39.0057C33.1987 39.1211 33.4126 39.3394 33.5226 39.6126L39.7487 55.0849L39.751 55.084Z" fill="#F56132"/>
<path id="Vector_15" d="M36.982 56.4566C36.9486 56.4572 36.9154 56.4504 36.8849 56.4367C36.8241 56.4114 36.7757 56.3631 36.7505 56.3022L30.5273 40.8365C30.459 40.6715 30.4238 40.4948 30.4238 40.3162C30.4238 40.1377 30.459 39.9609 30.5273 39.796C30.597 39.6311 30.699 39.4819 30.8273 39.3571C30.9555 39.2322 31.1075 39.1343 31.2741 39.0691L31.9811 38.7828C32.3149 38.6488 32.6883 38.652 33.0197 38.7919C33.3512 38.9317 33.614 39.1969 33.7509 39.5296L39.9741 54.9929C39.9987 55.054 39.9981 55.1223 39.9725 55.183C39.9468 55.2436 39.8982 55.2916 39.8372 55.3165L37.0766 56.4441C37.0462 56.4543 37.014 56.4586 36.982 56.4566ZM32.5013 39.1836C32.3913 39.1835 32.2823 39.2047 32.1802 39.2458L31.4782 39.5296C31.2666 39.6158 31.0978 39.7823 31.0086 39.9927C30.9195 40.2032 30.9174 40.4403 31.0028 40.6523L37.1338 55.884L39.4389 54.9555L33.2954 39.7238C33.231 39.5645 33.1206 39.428 32.9783 39.3318C32.836 39.2356 32.6682 39.184 32.4963 39.1836H32.5013Z" fill="#093F68"/>
<path id="Vector_16" d="M36.9854 56.2099L39.7534 55.0947L40.0496 58.729L40.1641 60.1156L39.2854 59.0352L36.9854 56.2099Z" fill="white"/>
<path id="Vector_17" d="M40.1635 60.3641C40.1267 60.3639 40.0905 60.3555 40.0573 60.3396C40.0242 60.3237 39.995 60.3006 39.9718 60.272L36.7905 56.3664C36.7659 56.3362 36.7486 56.3006 36.7402 56.2625C36.7318 56.2244 36.7325 56.1848 36.7422 56.1471C36.7519 56.1093 36.7703 56.0743 36.796 56.0449C36.8217 56.0156 36.8539 55.9927 36.8901 55.9781L39.6607 54.8629C39.6966 54.8488 39.7353 54.8432 39.7738 54.8467C39.8122 54.8502 39.8493 54.8625 39.8822 54.8828C39.9158 54.903 39.9442 54.931 39.9649 54.9643C39.9857 54.9976 39.9983 55.0353 40.0017 55.0745L40.4124 60.0953C40.4161 60.1481 40.4029 60.2006 40.3747 60.2454C40.3465 60.2902 40.3048 60.3248 40.2556 60.3442C40.2266 60.357 40.1952 60.3638 40.1635 60.3641ZM37.3905 56.3141L39.8498 59.3361L39.5312 55.4478L37.3905 56.3141Z" fill="#093F68"/>
<path id="Vector_18" d="M39.2852 59.0347L40.0494 58.7285L40.1639 60.115L39.2852 59.0347Z" fill="#093F68"/>
<path id="Vector_19" d="M40.1638 60.3645C40.1271 60.3642 40.0908 60.3559 40.0577 60.3399C40.0245 60.324 39.9953 60.3009 39.9721 60.2724L39.091 59.1945C39.0661 59.164 39.0489 59.128 39.0406 59.0895C39.0324 59.0509 39.0335 59.011 39.0437 58.973C39.0538 58.9355 39.0726 58.9008 39.0985 58.8719C39.1245 58.8429 39.1568 58.8204 39.193 58.8062L39.9572 58.4975C39.9933 58.483 40.0323 58.4771 40.071 58.4804C40.1098 58.4836 40.1472 58.4959 40.1804 58.5162C40.2135 58.5365 40.2415 58.5644 40.2619 58.5974C40.2824 58.6305 40.2948 58.6679 40.2982 58.7066L40.4127 60.0956C40.4165 60.1484 40.4032 60.201 40.375 60.2458C40.3468 60.2905 40.3051 60.3251 40.2559 60.3446C40.2269 60.3574 40.1956 60.3642 40.1638 60.3645ZM39.6909 59.1398L39.8502 59.3364L39.8303 59.0875L39.6909 59.1398Z" fill="#093F68"/>
</g>
<defs>
<filter id="filter0_d_849_50201" x="0.423828" y="0" width="101.978" height="100" filterUnits="userSpaceOnUse" color-interpolation-filters="sRGB">
<feFlood flood-opacity="0" result="BackgroundImageFix"/>
<feColorMatrix in="SourceAlpha" type="matrix" values="0 0 0 0 0 0 0 0 0 0 0 0 0 0 0 0 0 0 127 0" result="hardAlpha"/>
<feOffset dy="4"/>
<feGaussianBlur stdDeviation="15"/>
<feComposite in2="hardAlpha" operator="out"/>
<feColorMatrix type="matrix" values="0 0 0 0 1 0 0 0 0 1 0 0 0 0 1 0 0 0 0.5 0"/>
<feBlend mode="normal" in2="BackgroundImageFix" result="effect1_dropShadow_849_50201"/>
<feBlend mode="normal" in="SourceGraphic" in2="effect1_dropShadow_849_50201" result="shape"/>
</filter>
</defs>
</svg>
