<svg width="60" height="60" viewBox="0 0 60 60" fill="none" xmlns="http://www.w3.org/2000/svg">
<g filter="url(#filter0_di_849_49755)">
<path d="M58.8047 28.9584V23.3326C58.8047 23.1212 58.6434 22.942 58.4356 22.9205L52.0465 22.2433C51.8781 22.2253 51.7419 22.1071 51.6954 21.9458C51.3872 20.8888 50.9679 19.8818 50.4484 18.9394C50.3659 18.7925 50.3803 18.6098 50.4878 18.4808L54.5298 13.4856C54.6624 13.3208 54.6516 13.0807 54.5011 12.9338L50.5236 8.95626C50.4515 8.88397 50.3552 8.84102 50.2532 8.83572C50.1513 8.83043 50.051 8.86316 49.9718 8.92759L44.9694 12.966C44.8369 13.0735 44.6577 13.0843 44.5108 13.0054C43.5569 12.4818 42.5488 12.0636 41.5044 11.7584C41.3431 11.7118 41.2249 11.5757 41.2069 11.4073L40.5297 5.01459C40.5082 4.80676 40.329 4.64551 40.1176 4.64551H34.4918C34.2804 4.64551 34.1012 4.80676 34.0797 5.01459L33.4024 11.4037C33.3845 11.5721 33.2663 11.7083 33.105 11.7548C32.0479 12.063 31.041 12.4823 30.0986 13.0018C29.9517 13.0843 29.7689 13.0699 29.6399 12.9624L24.6448 8.92401C24.5656 8.85958 24.4653 8.82685 24.3633 8.83214C24.2614 8.83744 24.165 8.88039 24.0929 8.95267L20.1154 12.9302C20.0432 13.0023 20.0002 13.0986 19.9949 13.2006C19.9896 13.3025 20.0223 13.4028 20.0868 13.482L24.1288 18.4772C24.2363 18.6098 24.247 18.7889 24.1682 18.9358C23.6445 19.8897 23.2264 20.8978 22.9212 21.9423C22.8746 22.1035 22.7384 22.2218 22.57 22.2397L16.1738 22.9205C15.9659 22.942 15.8047 23.1212 15.8047 23.3326V28.9584C15.8047 29.1698 15.9659 29.349 16.1738 29.3705L22.5629 30.0478C22.7313 30.0657 22.8674 30.1839 22.914 30.3452C23.2222 31.4023 23.6414 32.4092 24.161 33.3516C24.2434 33.4985 24.2291 33.6813 24.1216 33.8103L20.0832 38.8054C19.9506 38.9703 19.9614 39.2103 20.1119 39.3573L24.0894 43.3348C24.2399 43.4853 24.4764 43.496 24.6412 43.3634L29.6364 39.3214C29.7689 39.2139 29.9481 39.2032 30.095 39.282C31.041 39.8016 32.0479 40.2208 33.1014 40.529C33.2627 40.5756 33.3809 40.7118 33.3989 40.8802L34.0797 47.2764C34.1012 47.4878 34.2804 47.6455 34.4918 47.6455H40.1176C40.329 47.6455 40.5082 47.4843 40.5297 47.2764L41.2069 40.8873C41.2249 40.7189 41.3431 40.5828 41.5044 40.5362C42.5614 40.228 43.5684 39.8088 44.5108 39.2892C44.6577 39.2068 44.8404 39.2211 44.9694 39.3286L49.9646 43.3706C50.1294 43.5032 50.3695 43.4924 50.5164 43.3419L54.4939 39.3644C54.6444 39.2139 54.6552 38.9774 54.5226 38.8126L50.4806 33.8174C50.3731 33.6848 50.3624 33.5057 50.4412 33.3588C50.9608 32.4128 51.38 31.4058 51.6882 30.3523C51.7348 30.1911 51.8709 30.0728 52.0394 30.0549L58.4356 29.3705C58.6434 29.349 58.8047 29.1698 58.8047 28.9584ZM37.3047 30.1875C35.0723 30.1875 33.2627 28.3779 33.2627 26.1455C33.2627 23.9131 35.0723 22.1035 37.3047 22.1035C39.5371 22.1035 41.3467 23.9131 41.3467 26.1455C41.3467 28.3779 39.5371 30.1875 37.3047 30.1875Z" fill="url(#paint0_linear_849_49755)"/>
</g>
<path d="M43.2391 20.9425C44.5541 22.4404 45.3102 24.4435 45.1848 26.6221C44.9519 30.6211 41.6624 33.8569 37.6598 34.0325C35.9577 34.1077 34.3703 33.6419 33.0516 32.7962C32.9513 32.7317 32.8438 32.8679 32.9298 32.9539C33.7548 33.7978 34.7557 34.4494 35.8613 34.8626C36.9668 35.2757 38.1498 35.44 39.3261 35.344C43.1889 35.0394 46.3351 31.9398 46.6898 28.0805C46.9657 25.0849 45.5933 22.3938 43.3824 20.7956C43.2785 20.724 43.1602 20.8494 43.2391 20.9425Z" fill="url(#paint1_linear_849_49755)"/>
<path d="M30.0904 26.6186C29.8503 21.9065 32.8962 18.4521 37.2607 18.4521C37.4936 18.4521 37.8627 18.4521 38.1493 18.7818C38.5112 19.2046 38.5435 19.7135 38.1493 20.1327C37.8591 20.4409 37.4506 20.4624 37.2427 20.4911C32.8352 21.0608 31.8032 23.8415 31.5703 26.5003C31.5596 26.6186 31.5918 27.3424 30.9576 27.4176C30.1872 27.5072 30.094 26.7332 30.0904 26.6186Z" fill="url(#paint2_linear_849_49755)"/>
<defs>
<filter id="filter0_di_849_49755" x="0.804688" y="0.645508" width="59" height="59" filterUnits="userSpaceOnUse" color-interpolation-filters="sRGB">
<feFlood flood-opacity="0" result="BackgroundImageFix"/>
<feColorMatrix in="SourceAlpha" type="matrix" values="0 0 0 0 0 0 0 0 0 0 0 0 0 0 0 0 0 0 127 0" result="hardAlpha"/>
<feOffset dx="-7" dy="4"/>
<feGaussianBlur stdDeviation="4"/>
<feComposite in2="hardAlpha" operator="out"/>
<feColorMatrix type="matrix" values="0 0 0 0 0 0 0 0 0 0 0 0 0 0 0 0 0 0 0.25 0"/>
<feBlend mode="normal" in2="BackgroundImageFix" result="effect1_dropShadow_849_49755"/>
<feBlend mode="normal" in="SourceGraphic" in2="effect1_dropShadow_849_49755" result="shape"/>
<feColorMatrix in="SourceAlpha" type="matrix" values="0 0 0 0 0 0 0 0 0 0 0 0 0 0 0 0 0 0 127 0" result="hardAlpha"/>
<feOffset dx="2"/>
<feGaussianBlur stdDeviation="0.5"/>
<feComposite in2="hardAlpha" operator="arithmetic" k2="-1" k3="1"/>
<feColorMatrix type="matrix" values="0 0 0 0 0 0 0 0 0 0 0 0 0 0 0 0 0 0 0.25 0"/>
<feBlend mode="normal" in2="shape" result="effect2_innerShadow_849_49755"/>
</filter>
<linearGradient id="paint0_linear_849_49755" x1="22.4339" y1="41.5538" x2="55.2214" y2="9.84134" gradientUnits="userSpaceOnUse">
<stop offset="0.341133" stop-color="#1E88E5"/>
<stop offset="1" stop-color="#20435E"/>
</linearGradient>
<linearGradient id="paint1_linear_849_49755" x1="46.5534" y1="22.983" x2="35.8183" y2="40.9054" gradientUnits="userSpaceOnUse">
<stop offset="0.0527092" stop-color="white"/>
<stop offset="1" stop-color="#50D0EF" stop-opacity="0.29"/>
</linearGradient>
<linearGradient id="paint2_linear_849_49755" x1="30.2095" y1="24.7737" x2="44.7424" y2="14.8027" gradientUnits="userSpaceOnUse">
<stop stop-color="#CDCDCD"/>
<stop offset="1" stop-color="#CDCDCD" stop-opacity="0"/>
</linearGradient>
</defs>
</svg>
